<svg
				viewBox="0 0 963 1400"
				fill="currentColor"
				xmlns="http://www.w3.org/2000/svg"
			>
				<path
					d="M354 0C355.389 4e-06 356.778 3.99351e-06 358.583 0.393596C358.561 2.13638 358.327 3.59931 357.652 4.81767C347.636 22.8947 337.032 40.6683 327.637 59.0604C315.933 81.9726 304.67 105.147 294.236 128.66C285.095 149.258 276.792 170.276 269.138 191.476C256.793 225.668 246.238 260.45 238.111 295.913C235.133 308.906 232.325 321.961 230.104 335.1C227.656 349.589 225.676 364.174 224.035 378.778C222.349 393.789 221.168 408.865 220.168 423.939C220.025 426.097 221.566 429.127 223.312 430.522C232.986 438.252 242.964 445.602 251.76 452.265C269.855 441.278 286.988 429.977 304.966 420.236C319.8 412.198 335.474 405.624 351.061 399.081C377.724 387.886 405.201 378.89 433.298 372.15C456.044 366.694 479.029 362.075 502.086 358.126C517.56 355.476 533.313 353.991 549.002 353.203C562.05 352.547 575.203 353.375 588.278 354.098C597.588 354.612 606.975 355.392 616.104 357.189C642.495 362.384 667.424 371.504 689.524 387.237C699.59 394.402 709.169 402.182 716.711 412.167C722.362 419.65 728.168 427.016 733.904 434.433C736.666 432.232 739.722 429.795 742.924 427.244C742.637 426.414 742.128 425.538 742.051 424.625C740.67 408.076 739.681 391.486 737.897 374.982C736.372 360.868 734.429 346.759 731.793 332.815C728.688 316.385 724.829 300.089 720.957 283.815C711.818 245.407 699.659 207.911 685.477 171.106C672.149 136.519 657.418 102.511 639.921 69.787C630.555 52.2706 620.706 35.0133 611.265 17.536C608.199 11.8589 605.738 5.85464 603 1.19805e-05C604.389 3.98053e-06 605.778 4.02331e-06 607.243 0.230956C614.363 9.29194 621.372 18.1494 628.458 26.9454C638.526 39.4443 649.239 51.4727 658.625 64.4619C676.549 89.2671 694.253 114.266 711.041 139.846C722.623 157.494 732.974 176.003 743.017 194.591C751.985 211.188 760.376 228.158 767.935 245.439C777.226 266.683 785.862 288.247 793.88 310.004C799.591 325.499 804.346 341.403 808.549 357.382C812.678 373.078 815.746 389.065 818.943 404.992C820.93 414.893 822.996 424.873 823.658 434.908C824.035 440.622 827.384 447.573 820.281 452.339C816.078 455.159 812.521 458.929 808.379 461.856C790.965 474.165 773.503 486.41 755.879 498.414C753.55 500.001 752.849 501.44 752.976 503.945C753.375 511.872 753.695 519.804 753.984 527.736C754.083 530.451 754 533.173 754 537.031C768.825 530.812 782.788 525.535 796.243 519.182C819.081 508.4 841.607 496.985 862.881 483.219C866.059 481.163 867.419 479.472 866.999 475.999C866.311 470.313 865.797 464.603 864.984 458.935C862.39 440.846 860.176 422.685 856.927 404.712C851.401 374.152 842.335 344.546 832.201 315.192C821.481 284.141 809.014 253.842 794.904 224.242C784.877 203.206 774.253 182.408 762.862 162.082C747.837 135.272 731.781 109.041 716.225 82.5289C714.166 79.0202 712.434 75.3193 710.551 71.7073C711.103 71.2656 711.655 70.8238 712.207 70.3821C714.162 72.1156 716.369 73.637 718.03 75.6167C729.412 89.1803 740.818 102.728 751.949 116.497C766.346 134.305 780.661 152.186 794.713 170.267C818.717 201.156 840.699 233.444 861.373 266.663C881.185 298.495 899.29 331.193 915.132 365.195C927.158 391.006 937.58 417.401 945.935 444.586C952.818 466.981 958.613 489.666 961.085 513.066C961.159 513.77 962.337 514.358 963 515C963 520.688 963 526.376 962.763 532.191C896.622 575.912 823.906 601.585 746.626 614.155C743.437 626.897 740.344 639.257 737.22 651.739C745.389 655.249 753.579 658.417 761.462 662.219C789.091 675.546 815.519 690.856 840.566 708.693C863.378 724.938 884.71 742.887 904.627 762.426C917.555 775.108 929.299 789.036 941.082 802.827C945.361 807.834 950.69 812.347 948.298 821.183C944.695 834.489 943.935 848.562 940.358 861.878C933.842 886.135 927.031 910.387 918.682 934.055C910.92 956.058 901.615 977.583 891.839 998.789C882.908 1018.16 872.993 1037.14 862.492 1055.71C851.135 1075.8 839.061 1095.53 826.464 1114.87C808.204 1142.91 788.583 1170.01 766.921 1195.56C751.198 1214.11 735.571 1232.75 719.429 1250.93C707.008 1264.91 693.873 1278.27 680.972 1291.82C680.198 1292.64 678.678 1292.74 676.364 1293.6C677.201 1291.06 677.4 1289.62 678.1 1288.47C687.185 1273.64 696.743 1259.07 705.398 1243.99C724.832 1210.13 744.291 1176.26 762.803 1141.88C771.877 1125.04 779.419 1107.29 786.659 1089.54C797.256 1063.57 807.931 1037.56 816.765 1010.96C825.442 984.833 832.442 958.101 839.07 931.36C843.681 912.756 847.016 893.775 849.807 874.799C852.073 859.385 852.725 843.731 853.95 828.172C854.054 826.855 853.452 825.082 852.537 824.149C843.282 814.702 834.405 804.791 824.414 796.18C811.307 784.882 797.733 774.005 783.545 764.115C768.617 753.709 752.87 744.443 737.206 735.14C728.311 729.857 718.868 725.497 709.35 720.555C707.372 724.385 705.667 727.688 704.044 730.833C712.015 737.351 719.996 743.562 727.624 750.181C744.411 764.746 761.669 778.853 777.535 794.373C796.833 813.25 814.939 833.35 833.424 853.049C835.049 854.781 836.986 857.766 836.549 859.652C831.682 880.655 827.002 901.737 821.035 922.441C812.665 951.485 801.284 979.458 788.609 1006.91C774.912 1036.58 762.103 1066.67 747.804 1096.04C734.544 1123.27 720.228 1150.02 705.62 1176.57C695.278 1195.36 684.323 1213.9 672.472 1231.77C657.714 1254.02 642.268 1275.87 626.138 1297.15C614.158 1312.96 600.869 1327.81 587.672 1342.65C579.783 1351.52 571.076 1359.68 562.503 1367.92C553.924 1376.17 544.984 1384.04 536.359 1392.24C533.954 1394.53 532.104 1397.4 530 1400C528.611 1400 527.222 1400 525.417 1399.6C525.709 1397.27 526.128 1395.15 527.17 1393.41C538.267 1374.84 549.658 1356.45 560.563 1337.78C568.109 1324.85 575.255 1311.68 582.168 1298.41C596.467 1270.96 611.25 1243.72 624.427 1215.73C639.296 1184.14 653.207 1152.07 666.44 1119.77C678.729 1089.76 690.229 1059.4 700.856 1028.77C709.459 1003.98 716.722 978.685 723.668 953.364C728.002 937.563 730.783 921.326 733.993 905.232C736.222 894.056 738.166 882.815 739.871 871.548C740.428 867.869 741.101 863.302 739.472 860.406C736.87 855.781 732.583 852.012 728.665 848.238C715.537 835.587 702.385 822.955 688.985 810.594C680.829 803.069 672.201 796.056 663.932 788.939C656.857 795.885 650.361 802.437 643.677 808.792C625.881 825.71 605.657 838.921 583.254 849.034C556.928 860.918 529.204 866.042 500.61 866.853C491.109 867.122 481.56 865.667 472.032 865.01C452.576 863.669 433.837 858.902 415.332 853.068C392.146 845.758 369.855 836.269 348.953 823.88C332.737 814.268 316.955 803.901 301.264 793.443C298.338 791.494 296.446 790.418 293.697 792.832C279.844 805.001 265.704 816.864 252.242 829.452C242.068 838.966 232.731 849.38 223.125 859.492C222.334 860.326 221.89 861.974 222.041 863.146C223.963 878.051 225.262 893.091 228.204 907.8C234.443 938.995 241.78 969.972 252.021 1000.14C261.35 1027.62 270.725 1055.1 280.845 1082.3C288.875 1103.88 297.843 1125.13 306.796 1146.35C315.822 1167.75 324.419 1189.4 334.845 1210.12C355.72 1251.59 377.418 1292.66 399.383 1333.57C408.989 1351.47 420.126 1368.54 430.474 1386.03C433.164 1390.58 435.501 1395.34 438 1400C436.286 1400 434.571 1400 432.767 1399.78C431.572 1398.32 430.555 1397 429.348 1395.87C420.276 1387.42 410.98 1379.19 402.106 1370.54C381.261 1350.2 360.59 1329.67 342.931 1306.4C330.506 1290.02 317.819 1273.82 306.104 1256.94C281.959 1222.16 260.512 1185.68 240.82 1148.23C228.012 1123.87 215.934 1099.11 204.142 1074.24C192.375 1049.42 181.02 1024.39 170.151 999.165C161.874 979.957 153.671 960.616 147.19 940.762C139.501 917.208 133.469 893.097 127.266 869.086C126.106 864.596 123.598 859.318 127.903 854.577C139.761 841.515 150.981 827.826 163.415 815.344C179.415 799.282 196.22 784.011 212.932 768.675C222.868 759.557 233.291 750.969 243.444 742.186C240.013 738.485 236.561 734.76 232.943 730.857C205.957 745.743 179.737 761.734 155.52 780.901C139.183 793.831 123.733 807.663 110.139 823.478C108.987 824.818 107.993 826.946 108.114 828.623C108.889 839.427 109.668 850.251 111.069 860.987C113.094 876.512 115.404 892.01 118.028 907.446C123.234 938.07 131.302 968.004 140.907 997.51C146.278 1014.01 151.694 1030.53 158.149 1046.62C169.027 1073.73 180.212 1100.75 192.296 1127.34C200.648 1145.71 210.544 1163.4 220.104 1181.21C227.337 1194.68 234.828 1208.04 242.741 1221.12C256.206 1243.38 270.121 1265.37 283.745 1287.54C284.636 1288.99 284.663 1290.97 285.257 1293.38C283.486 1292.87 282.476 1292.89 282.003 1292.4C273.298 1283.3 264.664 1274.14 255.998 1265.01C252 1260.8 247.804 1256.76 243.976 1252.4C230.628 1237.2 217.27 1222.01 204.173 1206.59C194.946 1195.73 185.562 1184.93 177.256 1173.38C159.488 1148.67 141.783 1123.87 125.18 1098.37C112.238 1078.49 100.406 1057.83 89.1504 1036.94C74.251 1009.29 60.6802 980.904 49.917 951.36C41.6556 928.682 33.8327 905.784 27.2279 882.583C21.7683 863.403 18.1837 843.675 14.2214 824.098C13.3697 819.889 12.8135 814.122 14.9623 811.078C22.2226 800.797 30.1998 790.879 38.9233 781.802C58.9821 760.932 79.5078 740.528 102.566 722.824C124.961 705.628 148.13 689.69 173.089 676.426C178.386 673.611 183.613 670.662 188.899 667.76C178.384 647.641 171.17 626.726 168.792 604.891C154.693 600.877 140.955 597.07 127.279 593.053C97.2148 584.221 68.8808 571.221 41.2873 556.594C28.3596 549.742 15.8865 542.033 3.17206 534.774C2.26356 534.255 1.06414 534.246 0 534C2e-06 525.979 2.08616e-06 517.958 0.342454 509.797C1.80729 503.798 2.74134 497.895 4.08504 492.088C9.57037 468.38 15.5522 444.854 23.7945 421.865C33.2445 395.507 44.485 369.976 56.7196 344.865C63.1311 331.706 70.1229 318.793 77.5119 306.154C89.4905 285.665 101.595 265.226 114.4 245.248C134.198 214.36 155.654 184.617 178.546 155.926C190.172 141.354 201.619 126.636 213.389 112.181C223.643 99.589 234.203 87.2451 244.717 74.8674C246.168 73.1593 248.134 71.8884 249.861 70.4151C250.293 70.7544 250.724 71.0936 251.156 71.4329C250.799 72.7469 250.716 74.2237 250.045 75.3506C239.651 92.8107 228.972 110.105 218.784 127.683C207.771 146.685 196.663 165.665 186.582 185.164C175.819 205.98 165.685 227.161 156.244 248.61C147.428 268.638 139.51 289.087 131.863 309.6C119.942 341.578 110.745 374.412 104.244 407.894C100.887 425.184 99.2804 442.818 97.0447 460.317C96.3985 465.374 97.0808 470.717 95.7387 475.534C94.5652 479.746 96.0335 481.131 99.1015 483.09C123.315 498.558 148.855 511.51 174.944 523.429C178.997 525.28 183.228 526.74 186.814 528.158C193.502 517.789 199.717 508.154 205.48 499.218C184.629 483.74 164.019 468.314 143.232 453.131C139.741 450.581 137.363 448.144 137.97 443.523C139.738 430.067 140.365 416.373 143.266 403.173C148.66 378.628 154.658 354.166 161.672 330.037C170.144 300.888 181.224 272.583 194.117 245.1C203.865 224.322 214.294 203.834 225.182 183.628C241.096 154.095 259.4 126.034 278.656 98.5434C300.252 67.7135 324.254 38.8135 347.846 9.56572C350.213 6.63154 351.963 3.20046 354 0ZM417.826 590.314C411.875 593.289 405.818 596.071 399.993 599.275C377.417 611.691 356.947 626.648 342.867 648.812C334.423 662.104 327.659 676.53 330.43 692.509C332.257 703.049 336.256 713.804 341.713 723.024C368.824 768.833 408.5 800.278 457.525 819.902C481.596 829.537 506.633 834.667 532.899 829.988C556.09 825.857 575.969 815.455 593.011 799.452C616.524 777.374 631.515 749.991 641.942 719.854C648.494 700.917 652.792 681.425 653.862 661.439C654.481 649.889 653.593 638.233 652.979 626.646C651.679 602.082 640.577 583.205 619.332 570.611C603.207 561.052 585.311 557.761 566.913 557.1C558.162 556.785 549.347 557.396 540.599 558.069C530.931 558.812 521.155 559.365 511.689 561.294C479.718 567.806 448.406 576.643 417.826 590.314ZM214.016 649.551C225.214 672.253 240.077 692.427 256.929 711.316C256.671 709.744 256.184 708.265 255.528 706.865C251.862 699.038 247.82 691.369 244.532 683.388C237.934 667.376 234.154 650.605 236.195 633.316C238.188 616.422 243.864 600.435 251.875 585.342C267.666 555.59 291.125 533.047 318.711 514.473C351.725 492.244 388.097 477.219 425.868 465.344C464.98 453.048 504.841 444.26 545.879 442.197C564.726 441.25 583.534 442.207 602.313 445.661C618.88 448.708 634.649 453.456 649.361 461.376C691.079 483.834 712.404 519.483 715.987 566.226C716.67 575.145 716.663 584.116 717.028 593.06C717.075 594.203 717.448 595.333 717.863 597.459C718.505 595.921 718.794 595.49 718.862 595.027C722.42 571.017 725.493 546.971 722.99 522.624C721.646 509.545 720.99 496.315 718.493 483.45C710.953 444.6 687.474 417.997 652.564 400.826C625.605 387.565 596.529 383.82 567.02 383.367C552.665 383.146 538.245 384.71 523.914 386.081C510.798 387.337 497.6 388.639 484.72 391.29C450.42 398.347 416.575 407.245 383.599 419.18C341.915 434.266 302.058 452.857 267.136 480.714C240.395 502.045 218.747 527.355 206.72 559.913C201.506 574.028 197.469 588.559 199.183 603.727C200.981 619.639 206.514 634.576 214.016 649.551ZM302.036 722.447C305.434 726.526 308.832 730.604 312.229 734.682C312.266 732.095 311.084 730.281 310.435 728.293C306.906 717.481 301.774 706.839 300.415 695.744C297.238 669.814 307.09 647.084 321.837 626.386C340.086 600.772 364.939 582.966 392.704 569.251C440.904 545.442 491.905 531.056 545.583 527.227C568.551 525.589 591.501 527.206 613.474 535.111C645.167 546.514 668.501 566.683 678.364 599.818C681.517 610.413 682.783 621.569 684.913 632.468C686.354 618.743 687.893 604.869 687.682 591.023C687.499 579.089 685.543 567.157 683.982 555.275C680.546 529.114 667.103 509.033 645.679 494.163C622.892 478.347 596.857 473.105 569.776 472.115C559.361 471.734 548.89 472.496 538.461 473.045C529.897 473.496 521.171 473.521 512.842 475.275C490.198 480.043 467.518 484.878 445.232 491.056C407.895 501.408 372.061 515.633 339.349 536.831C313.984 553.269 292.208 573.167 277.857 600.362C264.39 625.881 261.834 651.532 274.67 678.202C282.153 693.749 291.012 708.318 302.036 722.447Z"
					fill="#FF6150"
				/>
			</svg>
